<?xml version="1.0" encoding="UTF-8"?>
<!DOCTYPE svg PUBLIC "-//W3C//DTD SVG 1.1//EN" "http://www.w3.org/Graphics/SVG/1.1/DTD/svg11.dtd">
<!-- Creator: CorelDRAW Home & Student 2014 -->
<svg xmlns="http://www.w3.org/2000/svg" xml:space="preserve" width="512px" height="512px" version="1.1" style="shape-rendering:geometricPrecision; text-rendering:geometricPrecision; image-rendering:optimizeQuality; fill-rule:evenodd; clip-rule:evenodd"
viewBox="0 0 509 509"
 xmlns:xlink="http://www.w3.org/1999/xlink">
 <defs>
  <style type="text/css">
   <![CDATA[
    .fil2 {fill:#00ACD7}
    .fil1 {fill:#00AED7}
    .fil0 {fill:white}
   ]]>
  </style>
 </defs>
 <g id="Ebene_x0020_1">
  <metadata id="CorelCorpID_0Corel-Layer"/>
  <g id="_355218312">
   <path class="fil0" d="M165 419c17,32 51,55 91,55 39,0 73,-23 91,-55 -25,5 -58,10 -91,10 -34,0 -67,-5 -91,-10l0 0z"/>
   <polygon class="fil0" points="261,285 317,295 310,314 "/>
   <polygon class="fil0" points="252,285 203,314 196,295 "/>
   <path class="fil0" d="M399 169l-80 18c7,15 21,26 38,26 23,0 42,-19 42,-42l0 -2 0 0z"/>
   <path class="fil0" d="M113 169l0 2c0,23 19,42 42,42 17,0 32,-11 38,-26l-80 -18z"/>
   <path class="fil0" d="M431 146c2,8 4,16 4,25 0,43 -35,78 -78,78 -39,0 -71,-30 -76,-68l150 -35 0 0z"/>
   <path class="fil0" d="M82 146l150 35c-5,38 -38,68 -77,68 -43,0 -77,-35 -77,-78 0,-9 1,-17 4,-25l0 0z"/>
   <path class="fil0" d="M155 62c-74,0 -134,60 -134,134 0,74 60,134 134,134 2,0 4,0 7,0 -6,12 -9,26 -9,41 0,11 4,27 3,25 9,2 20,4 32,6l1 -34 11 36c0,0 35,5 56,5 38,0 76,-7 100,-12 2,-9 3,-17 3,-26 0,-15 -3,-29 -9,-41 3,0 5,0 7,0 74,0 134,-60 134,-134 0,-74 -60,-134 -134,-134 -40,0 -76,18 -101,47 -25,-28 -61,-47 -101,-47l0 0z"/>
  </g>
  <g id="_355297448">
   <path class="fil1" d="M472 509l-435 0c-21,0 -37,-16 -37,-37l0 -435c0,-21 16,-37 37,-37l435 0c21,0 37,16 37,37l0 435c0,21 -16,37 -37,37l0 0z"/>
   <g>
    <path class="fil0" d="M163 86c-67,0 -122,54 -122,121 0,67 55,122 122,122 2,0 4,0 6,0 -5,11 -8,23 -8,37 0,10 4,25 3,23 8,2 18,4 29,6l1 -31 9 32c0,0 32,4 52,4 34,0 69,-6 90,-11 2,-7 3,-15 3,-23 0,-13 -3,-26 -8,-37 2,0 5,0 7,0 67,0 121,-55 121,-122 0,-67 -54,-121 -121,-121 -37,0 -70,16 -92,42 -23,-26 -56,-42 -92,-42l0 0zm-67 75l137 32c-5,35 -34,62 -70,62 -39,0 -70,-32 -70,-71 0,-8 1,-15 3,-23l0 0zm317 0c3,8 4,15 4,23 0,39 -31,71 -70,71 -36,0 -65,-27 -70,-62l136 -32 0 0zm-288 21l0 2c0,21 17,38 38,38 16,0 29,-9 35,-23l-73 -17zm260 0l-73 17c6,14 19,23 35,23 21,0 38,-17 38,-38l0 -2 0 0zm-134 106l-45 26 -6 -17 51 -9zm8 0l51 9 -6 17 -45 -26zm-87 121c16,30 47,50 83,50 35,0 66,-20 82,-50 -22,5 -52,9 -82,9 -31,0 -61,-4 -83,-9l0 0z"/>
    <ellipse id="Ellipse_x0020_" class="fil0" cx="157" cy="198" rx="87" ry="85"/>
    <ellipse id="Ellipse_x0020__0" class="fil0" cx="358" cy="201" rx="87" ry="85"/>
   </g>
  </g>
  <g id="_355297928">
   <g>
    <path class="fil2" d="M240 166c-12,4 -21,6 -33,9 -3,1 -3,1 -6,-2 -3,-3 -5,-5 -9,-7 -13,-7 -25,-5 -36,3 -14,8 -21,21 -21,37 1,16 12,30 27,32 14,2 25,-3 34,-13 2,-3 4,-5 6,-8 -8,0 -17,0 -39,0 -4,0 -5,-2 -4,-6 3,-6 8,-16 10,-22 1,-1 2,-3 5,-3 11,0 48,0 73,0 0,6 0,11 -1,16 -2,15 -8,28 -16,39 -15,19 -34,31 -57,34 -20,3 -38,-1 -54,-13 -15,-11 -23,-26 -25,-44 -3,-22 4,-41 17,-58 14,-19 33,-31 56,-35 18,-3 36,-1 52,10 11,7 18,16 23,28 2,2 1,3 -2,3z"/>
   </g>
   <g>
    <path class="fil2" d="M331 275c-18,0 -34,-5 -48,-17 -12,-10 -19,-23 -22,-39 -3,-22 3,-42 16,-60 15,-19 32,-29 56,-33 20,-4 40,-2 57,10 16,11 25,25 28,45 3,26 -4,48 -23,67 -13,13 -29,22 -48,26 -5,1 -10,1 -16,1zm48 -80c0,-3 0,-5 -1,-7 -3,-19 -22,-31 -40,-26 -19,4 -31,16 -35,34 -4,16 4,32 18,38 11,5 22,4 32,-1 16,-8 25,-21 26,-38z"/>
   </g>
  </g>
 </g>
</svg>
